<?xml version="1.0" encoding="utf-8"?>
<!-- Generator: Adobe Illustrator 19.0.0, SVG Export Plug-In . SVG Version: 6.00 Build 0)  -->
<svg version="1.1" id="Layer_1" xmlns="http://www.w3.org/2000/svg" xmlns:xlink="http://www.w3.org/1999/xlink" x="0px" y="0px"
	 viewBox="0 0 832 480" style="enable-background:new 0 0 832 480;" xml:space="preserve">
<style type="text/css">
	.st0{fill:#1A1A1A;}
	.st1{fill:#333333;}
</style>
<path id="XMLID_26_" class="st0" d="M719.2,56h-607C84,56,61,79,61,107.2v247.7C61,383,84,406,112.2,406h607
	c28.1,0,51.2-23,51.2-51.2V107.2C770.3,79,747.3,56,719.2,56z"/>
<polygon id="XMLID_36_" class="st1" points="422,305 422,304.3 422,304 422,88 332,88 332,214.1 241,123.8 205.4,88 205,88 151,88 
	81,88 151,161 151,161.2 151,378 241,378 241,251.4 332,341.7 367.8,378 368,378 422,378 492,378 "/>
<polygon id="XMLID_41_" class="st1" points="640,88 550,88 450,88 450,105 520,178 550,178 550,378 640,378 640,178 670,178 
	740,105 740,88 "/>
</svg>
